<svg width="13" height="13" viewBox="0 0 13 13" fill="none" xmlns="http://www.w3.org/2000/svg">
<path d="M5.7085 7.29171H1.75017C1.52586 7.29171 1.33797 7.21571 1.1865 7.06371C1.03503 6.91171 0.959027 6.72382 0.958499 6.50004C0.957971 6.27627 1.03397 6.08838 1.1865 5.93638C1.33903 5.78438 1.52692 5.70838 1.75017 5.70838H5.7085V1.75004C5.7085 1.52574 5.7845 1.33785 5.9365 1.18638C6.0885 1.0349 6.27639 0.958905 6.50017 0.958377C6.72394 0.957849 6.9121 1.03385 7.06462 1.18638C7.21715 1.3389 7.29289 1.52679 7.29183 1.75004V5.70838H11.2502C11.4745 5.70838 11.6626 5.78438 11.8146 5.93638C11.9666 6.08838 12.0424 6.27627 12.0418 6.50004C12.0413 6.72382 11.9653 6.91197 11.8138 7.0645C11.6624 7.21703 11.4745 7.29277 11.2502 7.29171H7.29183V11.25C7.29183 11.4743 7.21583 11.6625 7.06383 11.8145C6.91183 11.9665 6.72394 12.0422 6.50017 12.0417C6.27639 12.0412 6.0885 11.9652 5.9365 11.8137C5.7845 11.6622 5.7085 11.4743 5.7085 11.25V7.29171Z" fill="#007948"/>
</svg>
