<svg width="50" height="50" viewBox="0 0 50 50" fill="none" xmlns="http://www.w3.org/2000/svg">
<circle cx="25" cy="25" r="25" fill="#007948" fill-opacity="0.1"/>
<path d="M17.5 31.25C17.5 28.75 22.5 27.375 25 27.375C27.5 27.375 32.5 28.75 32.5 31.25V32.5H17.5M28.75 21.25C28.75 22.2446 28.3549 23.1984 27.6517 23.9017C26.9484 24.6049 25.9946 25 25 25C24.0054 25 23.0516 24.6049 22.3483 23.9017C21.6451 23.1984 21.25 22.2446 21.25 21.25C21.25 20.2554 21.6451 19.3016 22.3483 18.5983C23.0516 17.8951 24.0054 17.5 25 17.5C25.9946 17.5 26.9484 17.8951 27.6517 18.5983C28.3549 19.3016 28.75 20.2554 28.75 21.25ZM13.75 16.25V33.75C13.75 34.413 14.0134 35.0489 14.4822 35.5178C14.9511 35.9866 15.587 36.25 16.25 36.25H33.75C34.413 36.25 35.0489 35.9866 35.5178 35.5178C35.9866 35.0489 36.25 34.413 36.25 33.75V16.25C36.25 15.587 35.9866 14.9511 35.5178 14.4822C35.0489 14.0134 34.413 13.75 33.75 13.75H16.25C15.587 13.75 14.9511 14.0134 14.4822 14.4822C14.0134 14.9511 13.75 15.587 13.75 16.25Z" fill="#007948"/>
</svg>
