<svg width="31" height="30" viewBox="0 0 31 30" fill="none" xmlns="http://www.w3.org/2000/svg">
<path d="M23.1816 5H8.18164C5.41914 5 3.18164 7.2375 3.18164 10V20C3.18164 22.7625 5.41914 25 8.18164 25H23.1816C25.9441 25 28.1816 22.7625 28.1816 20V10C28.1816 7.2375 25.9441 5 23.1816 5ZM20.8566 17.2125C20.5566 17.4625 20.1441 17.5625 19.7566 17.4625L5.86914 14.0625C6.24414 13.15 7.13164 12.5 8.18164 12.5H23.1816C24.0191 12.5 24.7566 12.925 25.2191 13.55L20.8566 17.2125ZM8.18164 7.5H23.1816C24.5566 7.5 25.6816 8.625 25.6816 10V10.6875C24.9441 10.2625 24.0941 10 23.1816 10H8.18164C7.26914 10 6.41914 10.2625 5.68164 10.6875V10C5.68164 8.625 6.80664 7.5 8.18164 7.5Z" fill="#007948"/>
</svg>
