<svg width="50" height="50" viewBox="0 0 50 50" fill="none" xmlns="http://www.w3.org/2000/svg">
<circle cx="25" cy="25" r="25" fill="#007948" fill-opacity="0.1"/>
<path d="M29.1116 28.3463C28.9282 28.2863 27.7685 27.7636 28.4932 25.5609H28.4828C30.3716 23.6156 31.8151 20.4852 31.8151 17.4033C31.8151 12.6644 28.6639 10.1802 25.0016 10.1802C21.337 10.1802 18.2032 12.6633 18.2032 17.4033C18.2032 20.4979 19.6385 23.6409 21.5389 25.5817C22.2797 27.5248 20.9551 28.2459 20.6782 28.3475C16.8428 29.7344 12.3428 32.2625 12.3428 34.7583V35.694C12.3428 39.0944 18.9359 39.8675 25.0374 39.8675C31.1482 39.8675 37.6582 39.0944 37.6582 35.694V34.7583C37.6582 32.1875 33.1362 29.679 29.1116 28.3463Z" fill="#007948"/>
</svg>
