<svg width="50" height="50" viewBox="0 0 50 50" fill="none" xmlns="http://www.w3.org/2000/svg">
<circle cx="25" cy="25" r="25" fill="#007948" fill-opacity="0.1"/>
<path d="M36.25 12.5H17.5C16.837 12.5 16.2011 12.7634 15.7322 13.2322C15.2634 13.7011 15 14.337 15 15V18.75H12.5V21.25H15V23.75H12.5V26.25H15V28.75H12.5V31.25H15V35C15 35.663 15.2634 36.2989 15.7322 36.7678C16.2011 37.2366 16.837 37.5 17.5 37.5H36.25C36.5815 37.5 36.8995 37.3683 37.1339 37.1339C37.3683 36.8995 37.5 36.5815 37.5 36.25V13.75C37.5 13.4185 37.3683 13.1005 37.1339 12.8661C36.8995 12.6317 36.5815 12.5 36.25 12.5ZM26.25 16.2488C28.31 16.2488 30 17.9375 30 19.9988C29.997 20.9925 29.601 21.9447 28.8984 22.6476C28.1959 23.3504 27.2438 23.7467 26.25 23.75C24.1912 23.75 22.5 22.0588 22.5 19.9988C22.5 17.9375 24.1912 16.2488 26.25 16.2488ZM33.75 32.5H18.75V31.5625C18.75 28.7887 22.1313 25.9375 26.25 25.9375C30.3687 25.9375 33.75 28.7887 33.75 31.5625V32.5Z" fill="#007948"/>
</svg>
