<svg width="70" height="70" viewBox="0 0 70 70" fill="none" xmlns="http://www.w3.org/2000/svg">
<circle cx="35" cy="35" r="35" fill="#0025CC" fill-opacity="0.1"/>
<path fill-rule="evenodd" clip-rule="evenodd" d="M22.75 19.25C20.817 19.25 19.25 20.817 19.25 22.75V47.25C19.25 49.183 20.817 50.75 22.75 50.75H47.25C49.183 50.75 50.75 49.183 50.75 47.25V22.75C50.75 20.817 49.183 19.25 47.25 19.25H22.75ZM28 36.75C28 35.7835 27.2165 35 26.25 35C25.2835 35 24.5 35.7835 24.5 36.75V43.75C24.5 44.7165 25.2835 45.5 26.25 45.5C27.2165 45.5 28 44.7165 28 43.75V36.75ZM35 29.75C35.9665 29.75 36.75 30.5335 36.75 31.5V43.75C36.75 44.7165 35.9665 45.5 35 45.5C34.0335 45.5 33.25 44.7165 33.25 43.75V31.5C33.25 30.5335 34.0335 29.75 35 29.75ZM45.5 26.25C45.5 25.2835 44.7165 24.5 43.75 24.5C42.7835 24.5 42 25.2835 42 26.25V43.75C42 44.7165 42.7835 45.5 43.75 45.5C44.7165 45.5 45.5 44.7165 45.5 43.75V26.25Z" fill="#0025CC"/>
</svg>
