<svg width="112" height="113" viewBox="0 0 112 113" fill="none" xmlns="http://www.w3.org/2000/svg">
<circle cx="56" cy="56.5" r="56" fill="#007948" fill-opacity="0.1"/>
<path d="M49.0003 56.4998L53.667 61.1665L64.167 50.6665M45.1125 37.4101C46.9881 37.2605 48.7687 36.5229 50.2008 35.3025C53.5427 32.4545 58.458 32.4545 61.7999 35.3025C63.232 36.5229 65.0126 37.2605 66.8882 37.4101C71.2651 37.7594 74.7408 41.235 75.09 45.612C75.2397 47.4876 75.9773 49.2682 77.1977 50.7003C80.0456 54.0422 80.0456 58.9575 77.1977 62.2994C75.9773 63.7315 75.2397 65.5121 75.09 67.3877C74.7408 71.7646 71.2651 75.2403 66.8882 75.5895C65.0126 75.7392 63.232 76.4768 61.7999 77.6972C58.458 80.5452 53.5427 80.5452 50.2008 77.6972C48.7687 76.4768 46.9881 75.7392 45.1125 75.5895C40.7355 75.2403 37.2599 71.7646 36.9106 67.3877C36.7609 65.5121 36.0234 63.7315 34.803 62.2994C31.955 58.9575 31.955 54.0422 34.803 50.7003C36.0234 49.2682 36.7609 47.4876 36.9106 45.612C37.2599 41.235 40.7355 37.7594 45.1125 37.4101Z" stroke="#007948" stroke-width="2" stroke-linecap="round" stroke-linejoin="round"/>
</svg>
