<svg width="70" height="70" viewBox="0 0 70 70" fill="none" xmlns="http://www.w3.org/2000/svg">
<circle cx="35" cy="35" r="35" fill="#CC006D" fill-opacity="0.1"/>
<path d="M31.5 36.75C38.2655 36.75 43.75 40.6675 43.75 45.5V47C43.75 48.1046 42.8546 49 41.75 49H21.25C20.1454 49 19.25 48.1046 19.25 47V45.5C19.25 40.6675 24.7345 36.75 31.5 36.75ZM31.5 21C35.366 21 38.5 24.134 38.5 28C38.5 31.866 35.366 35 31.5 35C27.634 35 24.5 31.866 24.5 28C24.5 24.134 27.634 21 31.5 21ZM45.5 24.5C46.4665 24.5 47.25 25.2835 47.25 26.25V28H49C49.9665 28 50.75 28.7835 50.75 29.75C50.75 30.7165 49.9665 31.5 49 31.5H47.25V33.25C47.25 34.2165 46.4665 35 45.5 35C44.5335 35 43.75 34.2165 43.75 33.25V31.5H42C41.0335 31.5 40.25 30.7165 40.25 29.75C40.25 28.7835 41.0335 28 42 28H43.75V26.25C43.75 25.2835 44.5335 24.5 45.5 24.5Z" fill="#CC006D"/>
</svg>
