<svg width="64" height="64" viewBox="0 0 64 64" fill="none" xmlns="http://www.w3.org/2000/svg">
<circle cx="32.0002" cy="31.9999" r="31.3732" fill="#CC0000" fill-opacity="0.1"/>
<path fill-rule="evenodd" clip-rule="evenodd" d="M24.1443 17.4643C22.8435 17.6345 22.1561 17.9477 21.6646 18.4279C21.1748 18.9097 20.8552 19.5842 20.6802 20.8578C20.5003 22.1699 20.4971 23.9076 20.4971 26.3985V40.162C21.133 39.7278 21.8386 39.4057 22.5833 39.2097C23.4313 38.9864 24.4206 38.9864 25.8708 38.9881H46.1932V26.4001C46.1932 23.9076 46.19 22.1699 46.0102 20.8578C45.8351 19.5842 45.5155 18.9097 45.0257 18.4279C44.5342 17.9477 43.8469 17.6345 42.546 17.4643C41.2066 17.2876 39.4335 17.2844 36.8896 17.2844H29.8007C27.2568 17.2844 25.4837 17.2876 24.1443 17.4643ZM24.9281 24.664C24.9281 23.9445 25.5223 23.3616 26.2562 23.3616H40.4341C40.7825 23.3586 41.118 23.4938 41.3669 23.7376C41.6159 23.9814 41.758 24.314 41.7623 24.6624C41.7584 25.0112 41.6165 25.3441 41.3675 25.5883C41.1185 25.8325 40.7828 25.9679 40.4341 25.9649H26.2562C25.9078 25.9679 25.5723 25.8327 25.3234 25.5889C25.0745 25.345 24.9323 25.0125 24.9281 24.664ZM26.2562 29.4387C25.9078 29.4357 25.5723 29.5709 25.3234 29.8148C25.0745 30.0586 24.9323 30.3911 24.9281 30.7396C24.9281 31.4591 25.5223 32.0421 26.2562 32.0421H35.1166C35.4653 32.0455 35.8012 31.9104 36.0505 31.6666C36.2997 31.4227 36.4421 31.0899 36.4464 30.7412C36.4425 30.3922 36.3004 30.059 36.051 29.8148C35.8017 29.5705 35.4656 29.4353 35.1166 29.4387H26.2562Z" fill="#CC0000"/>
<path d="M26.0754 41.5914H46.1939C46.1891 43.4062 46.1602 44.7617 46.0124 45.8313C45.8374 47.1049 45.5178 47.7794 45.0279 48.2612C44.5365 48.7414 43.8491 49.0546 42.5482 49.2248C41.2088 49.4015 39.4358 49.4047 36.8919 49.4047H29.8013C27.2574 49.4047 25.4844 49.4015 24.145 49.2264C22.8441 49.0546 22.1567 48.7414 21.6653 48.2612C21.1755 47.7794 20.8559 47.1049 20.6808 45.8313C20.615 45.3495 20.5716 44.8083 20.5459 44.1932C20.766 43.5916 21.1291 43.0526 21.6039 42.6226C22.0787 42.1925 22.6509 41.8844 23.2713 41.7247C23.737 41.6027 24.3425 41.5914 26.0754 41.5914Z" fill="#CC0000"/>
</svg>
