<svg width="70" height="70" viewBox="0 0 70 70" fill="none" xmlns="http://www.w3.org/2000/svg">
<circle cx="35" cy="35" r="35" fill="#007948" fill-opacity="0.1"/>
<path fill-rule="evenodd" clip-rule="evenodd" d="M50.9249 28.007C50.8257 28.0012 50.7201 27.9989 50.6081 28H46.1894C42.5704 28 39.4746 30.849 39.4746 34.5625C39.4746 38.276 42.5721 41.125 46.1894 41.125H50.6081C50.7201 41.1262 50.8263 41.1239 50.9266 41.118C51.6704 41.0732 52.3725 40.7595 52.9022 40.2353C53.4318 39.7112 53.7528 39.0123 53.8054 38.269C53.8124 38.164 53.8124 38.0503 53.8124 37.9453V31.1798C53.8124 31.0748 53.8124 30.961 53.8054 30.856C53.7528 30.1128 53.4318 29.4139 52.9022 28.8898C52.3725 28.3656 51.6687 28.0519 50.9249 28.007ZM45.8026 36.3125C46.7336 36.3125 47.4879 35.5285 47.4879 34.5625C47.4879 33.5965 46.7336 32.8125 45.8026 32.8125C44.8699 32.8125 44.1156 33.5965 44.1156 34.5625C44.1156 35.5285 44.8699 36.3125 45.8026 36.3125Z" fill="#007948"/>
<path fill-rule="evenodd" clip-rule="evenodd" d="M50.6065 43.75C50.667 43.7476 50.7272 43.7594 50.7823 43.7847C50.8373 43.8099 50.8857 43.8477 50.9233 43.8951C50.961 43.9425 50.987 43.9981 50.9991 44.0574C51.0113 44.1168 51.0093 44.1781 50.9933 44.2365C50.6433 45.4825 50.085 46.5465 49.1908 47.439C47.88 48.7515 46.2193 49.3307 44.1683 49.6073C42.1733 49.875 39.627 49.875 36.4105 49.875H32.7145C29.498 49.875 26.95 49.875 24.9568 49.6073C22.9058 49.3307 21.245 48.7497 19.9343 47.4407C18.6253 46.13 18.0443 44.4692 17.7678 42.4183C17.5 40.4233 17.5 37.877 17.5 34.6605V34.4645C17.5 31.248 17.5 28.7 17.7678 26.705C18.0443 24.654 18.6253 22.9932 19.9343 21.6825C21.245 20.3735 22.9058 19.7925 24.9568 19.516C26.9518 19.25 29.498 19.25 32.7145 19.25H36.4105C39.627 19.25 42.175 19.25 44.1683 19.5178C46.2193 19.7943 47.88 20.3752 49.1908 21.6842C50.085 22.5802 50.6433 23.6425 50.9933 24.8885C51.0093 24.9469 51.0113 25.0082 50.9991 25.0676C50.987 25.1269 50.961 25.1825 50.9233 25.2299C50.8857 25.2773 50.8373 25.3151 50.7823 25.3403C50.7272 25.3656 50.667 25.3774 50.6065 25.375H46.1895C41.2248 25.375 36.8498 29.295 36.8498 34.5625C36.8498 39.83 41.2248 43.75 46.1895 43.75H50.6065ZM24.0625 26.25C23.7144 26.25 23.3806 26.3883 23.1344 26.6344C22.8883 26.8806 22.75 27.2144 22.75 27.5625C22.75 27.9106 22.8883 28.2444 23.1344 28.4906C23.3806 28.7367 23.7144 28.875 24.0625 28.875H31.0625C31.4106 28.875 31.7444 28.7367 31.9906 28.4906C32.2367 28.2444 32.375 27.9106 32.375 27.5625C32.375 27.2144 32.2367 26.8806 31.9906 26.6344C31.7444 26.3883 31.4106 26.25 31.0625 26.25H24.0625Z" fill="#007948"/>
</svg>
