<svg width="63" height="64" viewBox="0 0 63 64" fill="none" xmlns="http://www.w3.org/2000/svg">
<circle cx="31.3732" cy="31.9999" r="31.3732" fill="#CC5200" fill-opacity="0.1"/>
<path d="M22.0731 47.2011C21.2001 47.2011 20.453 46.8905 19.8318 46.2693C19.2106 45.6481 18.8995 44.9005 18.8984 44.0264V18.629C18.8984 17.756 19.2096 17.0089 19.8318 16.3877C20.454 15.7665 21.2011 15.4554 22.0731 15.4543H41.1211C41.9942 15.4543 42.7418 15.7655 43.364 16.3877C43.9863 17.0099 44.2969 17.757 44.2958 18.629V44.0264C44.2958 44.8994 43.9852 45.6471 43.364 46.2693C42.7429 46.8915 41.9952 47.2021 41.1211 47.2011H22.0731ZM30.0098 29.7404L33.9781 27.3594L37.9465 29.7404V18.629H30.0098V29.7404Z" fill="#CC5200"/>
</svg>
