<svg width="55" height="55" viewBox="0 0 55 55" fill="none" xmlns="http://www.w3.org/2000/svg">
<rect width="55" height="55" rx="27.5" fill="#007948" fill-opacity="0.05"/>
<path d="M20.5 31.5002L19.5 35.5002L23.5 34.5002L35.086 22.9142C35.4609 22.5391 35.6716 22.0305 35.6716 21.5002C35.6716 20.9699 35.4609 20.4612 35.086 20.0862L34.914 19.9142C34.5389 19.5392 34.0303 19.3286 33.5 19.3286C32.9697 19.3286 32.4611 19.5392 32.086 19.9142L20.5 31.5002Z" stroke="#007948" stroke-width="1.58333" stroke-linecap="round" stroke-linejoin="round"/>
<path d="M20.5 31.5L19.5 35.5L23.5 34.5L33.5 24.5L30.5 21.5L20.5 31.5Z" fill="#007948"/>
<path d="M30.5 21.5L33.5 24.5M28.5 35.5H36.5" stroke="#007948" stroke-width="1.58333" stroke-linecap="round" stroke-linejoin="round"/>
</svg>
