<svg width="51" height="50" viewBox="0 0 51 50" fill="none" xmlns="http://www.w3.org/2000/svg">
<circle cx="25.834" cy="25" r="25" fill="#007948" fill-opacity="0.1"/>
<path d="M37.084 12.5H18.334C17.6709 12.5 17.0351 12.7634 16.5662 13.2322C16.0974 13.7011 15.834 14.337 15.834 15V18.75H13.334V21.25H15.834V23.75H13.334V26.25H15.834V28.75H13.334V31.25H15.834V35C15.834 35.663 16.0974 36.2989 16.5662 36.7678C17.0351 37.2366 17.6709 37.5 18.334 37.5H37.084C37.4155 37.5 37.7334 37.3683 37.9679 37.1339C38.2023 36.8995 38.334 36.5815 38.334 36.25V13.75C38.334 13.4185 38.2023 13.1005 37.9679 12.8661C37.7334 12.6317 37.4155 12.5 37.084 12.5ZM27.084 16.2488C29.144 16.2488 30.834 17.9375 30.834 19.9988C30.831 20.9925 30.435 21.9447 29.7324 22.6476C29.0298 23.3504 28.0777 23.7467 27.084 23.75C25.0252 23.75 23.334 22.0588 23.334 19.9988C23.334 17.9375 25.0252 16.2488 27.084 16.2488ZM34.584 32.5H19.584V31.5625C19.584 28.7887 22.9652 25.9375 27.084 25.9375C31.2027 25.9375 34.584 28.7887 34.584 31.5625V32.5Z" fill="#007948"/>
</svg>
