<svg width="51" height="50" viewBox="0 0 51 50" fill="none" xmlns="http://www.w3.org/2000/svg">
<circle cx="25.666" cy="25" r="25" fill="#007948" fill-opacity="0.1"/>
<path d="M27.541 30C27.541 30.4973 27.3435 30.9742 26.9918 31.3258C26.6402 31.6775 26.1633 31.875 25.666 31.875C25.1687 31.875 24.6918 31.6775 24.3402 31.3258C23.9886 30.9742 23.791 30.4973 23.791 30C23.791 29.5027 23.9886 29.0258 24.3402 28.6742C24.6918 28.3225 25.1687 28.125 25.666 28.125C26.1633 28.125 26.6402 28.3225 26.9918 28.6742C27.3435 29.0258 27.541 29.5027 27.541 30Z" fill="#007948"/>
<path d="M28.5998 10.8252L32.5748 16.3952L35.196 15.5014L37.5885 22.5002H38.791V37.5002H12.541V22.5002H13.1785V22.4877L13.9885 22.4952L28.5998 10.8252ZM22.4123 22.5002H34.9473L33.651 18.7089L31.7485 19.3177L22.4123 22.5002ZM20.4648 20.5214L30.1035 17.2377L28.0985 14.4252L20.4648 20.5214ZM17.541 25.0002H15.041V27.5002C15.7041 27.5002 16.3399 27.2368 16.8088 26.768C17.2776 26.2991 17.541 25.6632 17.541 25.0002ZM30.041 30.0002C30.041 29.4257 29.9279 28.8568 29.708 28.326C29.4881 27.7952 29.1659 27.3129 28.7596 26.9066C28.3534 26.5003 27.8711 26.1781 27.3403 25.9582C26.8095 25.7384 26.2405 25.6252 25.666 25.6252C25.0915 25.6252 24.5226 25.7384 23.9918 25.9582C23.461 26.1781 22.9787 26.5003 22.5724 26.9066C22.1662 27.3129 21.8439 27.7952 21.624 28.326C21.4042 28.8568 21.291 29.4257 21.291 30.0002C21.291 31.1605 21.752 32.2733 22.5724 33.0938C23.3929 33.9143 24.5057 34.3752 25.666 34.3752C26.8263 34.3752 27.9391 33.9143 28.7596 33.0938C29.5801 32.2733 30.041 31.1605 30.041 30.0002ZM36.291 35.0002V32.5002C35.628 32.5002 34.9921 32.7636 34.5232 33.2324C34.0544 33.7013 33.791 34.3372 33.791 35.0002H36.291ZM33.791 25.0002C33.791 25.6632 34.0544 26.2991 34.5232 26.768C34.9921 27.2368 35.628 27.5002 36.291 27.5002V25.0002H33.791ZM15.041 35.0002H17.541C17.541 34.3372 17.2776 33.7013 16.8088 33.2324C16.3399 32.7636 15.7041 32.5002 15.041 32.5002V35.0002Z" fill="#007948"/>
</svg>
