<svg width="51" height="50" viewBox="0 0 51 50" fill="none" xmlns="http://www.w3.org/2000/svg">
<circle cx="25.5" cy="25" r="25" fill="#007948" fill-opacity="0.1"/>
<path d="M18 31.25C18 28.75 23 27.375 25.5 27.375C28 27.375 33 28.75 33 31.25V32.5H18M29.25 21.25C29.25 22.2446 28.8549 23.1984 28.1517 23.9017C27.4484 24.6049 26.4946 25 25.5 25C24.5054 25 23.5516 24.6049 22.8483 23.9017C22.1451 23.1984 21.75 22.2446 21.75 21.25C21.75 20.2554 22.1451 19.3016 22.8483 18.5983C23.5516 17.8951 24.5054 17.5 25.5 17.5C26.4946 17.5 27.4484 17.8951 28.1517 18.5983C28.8549 19.3016 29.25 20.2554 29.25 21.25ZM14.25 16.25V33.75C14.25 34.413 14.5134 35.0489 14.9822 35.5178C15.4511 35.9866 16.087 36.25 16.75 36.25H34.25C34.913 36.25 35.5489 35.9866 36.0178 35.5178C36.4866 35.0489 36.75 34.413 36.75 33.75V16.25C36.75 15.587 36.4866 14.9511 36.0178 14.4822C35.5489 14.0134 34.913 13.75 34.25 13.75H16.75C16.087 13.75 15.4511 14.0134 14.9822 14.4822C14.5134 14.9511 14.25 15.587 14.25 16.25Z" fill="#007948"/>
</svg>
