<svg width="35" height="35" viewBox="0 0 35 35" fill="none" xmlns="http://www.w3.org/2000/svg">
<path d="M7.10938 5.46875C5.80401 5.46875 4.55211 5.9873 3.62908 6.91033C2.70605 7.83336 2.1875 9.08526 2.1875 10.3906V12.0312H32.8125V10.3906C32.8125 9.08526 32.2939 7.83336 31.3709 6.91033C30.4479 5.9873 29.196 5.46875 27.8906 5.46875H7.10938ZM2.1875 24.6094V14.2188H32.8125V24.6094C32.8125 25.9147 32.2939 27.1666 31.3709 28.0897C30.4479 29.0127 29.196 29.5312 27.8906 29.5312H7.10938C5.80401 29.5312 4.55211 29.0127 3.62908 28.0897C2.70605 27.1666 2.1875 25.9147 2.1875 24.6094ZM22.9688 20.7812C22.6787 20.7812 22.4005 20.8965 22.1954 21.1016C21.9902 21.3067 21.875 21.5849 21.875 21.875C21.875 22.1651 21.9902 22.4433 22.1954 22.6484C22.4005 22.8535 22.6787 22.9688 22.9688 22.9688H26.25C26.5401 22.9688 26.8183 22.8535 27.0234 22.6484C27.2285 22.4433 27.3438 22.1651 27.3438 21.875C27.3438 21.5849 27.2285 21.3067 27.0234 21.1016C26.8183 20.8965 26.5401 20.7812 26.25 20.7812H22.9688Z" fill="#D1D1D1"/>
</svg>
