<svg width="35" height="35" viewBox="0 0 35 35" fill="none" xmlns="http://www.w3.org/2000/svg">
<path d="M26.2498 5.83333H8.74984C5.52692 5.83333 2.9165 8.44374 2.9165 11.6667V23.3333C2.9165 26.5562 5.52692 29.1667 8.74984 29.1667H26.2498C29.4728 29.1667 32.0832 26.5562 32.0832 23.3333V11.6667C32.0832 8.44374 29.4728 5.83333 26.2498 5.83333ZM23.5373 20.0812C23.1873 20.3729 22.7061 20.4896 22.254 20.3729L6.05192 16.4062C6.48942 15.3417 7.52484 14.5833 8.74984 14.5833H26.2498C27.2269 14.5833 28.0873 15.0792 28.6269 15.8083L23.5373 20.0812ZM8.74984 8.74999H26.2498C27.854 8.74999 29.1665 10.0625 29.1665 11.6667V12.4687C28.3061 11.9729 27.3144 11.6667 26.2498 11.6667H8.74984C7.68525 11.6667 6.69359 11.9729 5.83317 12.4687V11.6667C5.83317 10.0625 7.14567 8.74999 8.74984 8.74999Z" fill="#D1D1D1"/>
</svg>
