<svg width="27" height="31" viewBox="0 0 27 31" fill="none" xmlns="http://www.w3.org/2000/svg">
<path d="M4.16667 0.916626C3.16105 0.916626 2.19663 1.3161 1.48555 2.02718C0.774478 2.73825 0.375 3.70268 0.375 4.70829V11.7083C0.375 12.2062 0.473074 12.6993 0.663623 13.1593C0.854172 13.6193 1.13346 14.0373 1.48555 14.3894C2.19663 15.1005 3.16105 15.5 4.16667 15.5H8.25C9.25561 15.5 10.22 15.1005 10.9311 14.3894C11.6422 13.6783 12.0417 12.7139 12.0417 11.7083V4.70829C12.0417 3.70268 11.6422 2.73825 10.9311 2.02718C10.22 1.3161 9.25561 0.916626 8.25 0.916626H4.16667ZM4.16667 18.4166C3.16105 18.4166 2.19663 18.8161 1.48555 19.5272C0.774478 20.2383 0.375 21.2027 0.375 22.2083V26.2916C0.375 27.2972 0.774478 28.2617 1.48555 28.9727C2.19663 29.6838 3.16105 30.0833 4.16667 30.0833H8.25C9.25561 30.0833 10.22 29.6838 10.9311 28.9727C11.6422 28.2617 12.0417 27.2972 12.0417 26.2916V22.2083C12.0417 21.2027 11.6422 20.2383 10.9311 19.5272C10.22 18.8161 9.25561 18.4166 8.25 18.4166H4.16667ZM18.75 0.916626C17.7444 0.916626 16.78 1.3161 16.0689 2.02718C15.3578 2.73825 14.9583 3.70268 14.9583 4.70829V8.79163C14.9583 9.79724 15.3578 10.7617 16.0689 11.4727C16.78 12.1838 17.7444 12.5833 18.75 12.5833H22.8333C23.3313 12.5833 23.8243 12.4852 24.2843 12.2947C24.7444 12.1041 25.1624 11.8248 25.5144 11.4727C25.8665 11.1207 26.1458 10.7027 26.3364 10.2426C26.5269 9.78261 26.625 9.28955 26.625 8.79163V4.70829C26.625 4.21036 26.5269 3.71731 26.3364 3.25728C26.1458 2.79726 25.8665 2.37927 25.5144 2.02718C25.1624 1.67509 24.7444 1.3958 24.2843 1.20525C23.8243 1.0147 23.3313 0.916626 22.8333 0.916626H18.75ZM18.75 15.5C17.7444 15.5 16.78 15.8994 16.0689 16.6105C15.3578 17.3216 14.9583 18.286 14.9583 19.2916V26.2916C14.9583 27.2972 15.3578 28.2617 16.0689 28.9727C16.78 29.6838 17.7444 30.0833 18.75 30.0833H22.8333C23.3313 30.0833 23.8243 29.9852 24.2843 29.7947C24.7444 29.6041 25.1624 29.3248 25.5144 28.9727C25.8665 28.6206 26.1458 28.2027 26.3364 27.7426C26.5269 27.2826 26.625 26.7896 26.625 26.2916V19.2916C26.625 18.7937 26.5269 18.3006 26.3364 17.8406C26.1458 17.3806 25.8665 16.9626 25.5144 16.6105C25.1624 16.2584 24.7444 15.9791 24.2843 15.7886C23.8243 15.598 23.3313 15.5 22.8333 15.5H18.75Z" fill="#D1D1D1"/>
</svg>
