<svg width="70" height="70" viewBox="0 0 70 70" fill="none" xmlns="http://www.w3.org/2000/svg">
<circle cx="35" cy="35" r="35" fill="#CC0000" fill-opacity="0.1"/>
<path fill-rule="evenodd" clip-rule="evenodd" d="M43.0957 23.2143L37.321 24.0393C36.4388 24.1653 35.718 24.5858 35.2033 25.167L21.7293 38.641C20.3625 40.0078 20.3624 42.2239 21.7293 43.5907L26.679 48.5405C28.0459 49.9074 30.262 49.9073 31.6288 48.5405L45.1028 35.0665C45.684 34.5518 46.1045 33.831 46.2305 32.9488L47.0555 27.174C47.3856 24.8643 45.4055 22.8842 43.0957 23.2143ZM39.0534 31.2164C39.7368 31.8997 40.8449 31.8998 41.5283 31.2164C42.2117 30.5329 42.2117 29.4249 41.5283 28.7415C40.8449 28.0581 39.7368 28.0581 39.0534 28.7415C38.37 29.4249 38.37 30.533 39.0534 31.2164Z" fill="#CC0000"/>
</svg>
