<svg width="70" height="70" viewBox="0 0 70 70" fill="none" xmlns="http://www.w3.org/2000/svg">
<circle cx="35" cy="35" r="35" fill="#29CC00" fill-opacity="0.1"/>
<path fill-rule="evenodd" clip-rule="evenodd" d="M21 24.5C21 20.634 24.134 17.5 28 17.5H38.5V24.5C38.5 28.366 41.634 31.5 45.5 31.5H49V45.5C49 49.366 45.866 52.5 42 52.5H28C24.134 52.5 21 49.366 21 45.5V24.5ZM28 33.25C27.0335 33.25 26.25 34.0335 26.25 35C26.25 35.9665 27.0335 36.75 28 36.75H31.5C32.4665 36.75 33.25 35.9665 33.25 35C33.25 34.0335 32.4665 33.25 31.5 33.25H28ZM28 40.25C27.0335 40.25 26.25 41.0335 26.25 42C26.25 42.9665 27.0335 43.75 28 43.75H35C35.9665 43.75 36.75 42.9665 36.75 42C36.75 41.0335 35.9665 40.25 35 40.25H28ZM43.1931 21.3479L42.964 24.785C42.8936 25.8415 43.7701 26.718 44.8265 26.6476L48.2637 26.4184C49.7639 26.3184 50.4479 24.498 49.3847 23.4349L46.1767 20.2269C45.1135 19.1637 43.2932 19.8477 43.1931 21.3479Z" fill="#29CC00"/>
</svg>
