<svg width="31" height="31" viewBox="0 0 31 31" fill="none" xmlns="http://www.w3.org/2000/svg">
<rect width="31" height="31" rx="15.5" fill="#0400FF" fill-opacity="0.1"/>
<path d="M9 23H17.2105M9.68421 13.9H16.5263M16.5263 23V10.4C16.5263 10.0287 16.3821 9.6726 16.1255 9.41005C15.8689 9.1475 15.5208 9 15.1579 9H11.0526C10.6897 9 10.3416 9.1475 10.085 9.41005C9.82838 9.6726 9.68421 10.0287 9.68421 10.4V23M16.5263 16.7H17.8947C18.2577 16.7 18.6057 16.8475 18.8624 17.1101C19.119 17.3726 19.2632 17.7287 19.2632 18.1V19.5C19.2632 19.8713 19.4073 20.2274 19.664 20.4899C19.9206 20.7525 20.2687 20.9 20.6316 20.9C20.9945 20.9 21.3426 20.7525 21.5992 20.4899C21.8558 20.2274 22 19.8713 22 19.5V14.481C22.0001 14.2963 21.9645 14.1133 21.8953 13.9427C21.826 13.7721 21.7244 13.6172 21.5963 13.487L19.2632 11.1" stroke="#0400FF" stroke-width="2" stroke-linecap="round" stroke-linejoin="round"/>
</svg>
